<svg width="64" height="64" viewBox="0 0 64 64" xmlns="http://www.w3.org/2000/svg">
  <defs>
    <linearGradient id="waveBody" x1="0" y1="0" x2="0" y2="1">
      <stop offset="0%" stop-color="#6FA8D8"/>
      <stop offset="100%" stop-color="#1F4E80"/>
    </linearGradient>
  </defs>

  <rect width="64" height="64" rx="14" fill="#0F2137"/>

  <!-- single bold curling wave, kept simple so it reads at small sizes -->
  <path
    d="M10 44
       C 16 44, 18 39, 15 34
       C 13 30.5, 14 27, 18 27
       C 22.5 27, 24 31, 21.5 34.5
       C 25 33, 27 29, 24.5 24.5
       C 22.5 21, 24 17, 28.5 17
       C 35 17, 38.5 23, 35.5 29
       C 40 26.5, 42 21, 38 15.5
       C 44 17.5, 48 24, 44 31.5
       C 40.5 38, 33 39, 29 34.5
       C 27 39.5, 21 44, 14 43.5
       C 12.5 43.5, 11 44, 10 44 Z"
    fill="url(#waveBody)"
  />
</svg>
